<?xml version="1.0" encoding="UTF-8"?>
<svg width="246px" height="237px" viewBox="0 0 246 237" version="1.1" xmlns="http://www.w3.org/2000/svg" xmlns:xlink="http://www.w3.org/1999/xlink">
    <!-- Generator: Sketch 43.1 (39012) - http://www.bohemiancoding.com/sketch -->
    <title>Logo Light</title>
    <desc>Created with Sketch.</desc>
    <defs></defs>
    <g id="Page-1" stroke="none" stroke-width="1" fill="none" fill-rule="evenodd">
        <g id="Desktop" transform="translate(-645.000000, -636.000000)">
            <g id="Logo-Light" transform="translate(645.000000, 636.000000)">
                <g id="Group" fill-rule="nonzero" fill="#FFFFFF">
                    <path d="M81.5468916,41.8149217 C90.0324657,38.3663442 99.3311529,36.4542408 109.089581,36.4542408 C125.341849,36.4542408 140.327687,41.7473575 152.380893,50.651836 C161.582135,45.6373781 173.347646,43.6297046 188.567996,33.6645022 C168.650651,12.9439808 140.415495,0 109.089581,0 C55.8317436,0 11.4853118,37.3840369 1.82218717,86.8554239 C5.01967056,81.8896263 9.57924333,75.8834092 16.0373888,69.2187031 C12.6050378,82.8288744 12.4561931,93.5540871 13.3299863,106.054524 C16.5235433,76.7778479 45.7931164,47.1024372 81.5468916,41.8149217 Z" id="Shape"></path>
                    <path d="M193.863939,11.3444934 C200.361705,22.3742703 198.188644,33.2265598 192.898412,38.3831477 C187.60818,43.5379852 168.747739,49.2466396 157.652208,54.9181861 C146.556676,60.5911329 137.860863,68.7226484 135.348351,77.5543117 C125.883686,81.7306928 111.092738,101.610687 121.787781,113.868173 C125.538523,100.905288 143.27317,94.382712 159.548639,99.0026366 C165.165116,100.596523 173.37406,106.522223 176.440189,114.599827 L175.365794,117.371012 C166.395494,136.098563 146.998927,149.07265 124.506248,149.07265 C93.487661,149.07265 68.3393363,124.407846 68.3393363,93.9843279 C68.3393363,74.2517149 78.9237274,56.9538656 94.821195,47.2242629 C65.7561495,56.2859247 44.6923083,82.9598021 44.6923083,114.4689 C44.6923083,132.535861 51.6423194,148.993883 63.0337555,161.474016 C62.3602066,160.925801 61.6313317,160.427996 60.8681905,159.964148 C46.7889836,147.618793 37.6391411,129.907157 36.9027705,109.933343 C36.0421841,86.5487592 46.8957092,65.4221521 64.2948304,51.9618124 C34.6840211,63.1543737 14.1620173,91.8121196 15.3713356,124.658849 C15.4266616,126.149814 15.5373135,127.624325 15.6786624,129.091484 C10.0125705,118.212939 7.20236882,105.725105 8.15825858,92.6484461 C8.35457649,89.9616292 8.72079864,87.325223 9.21694754,84.7374771 C4.2051297,94.0011315 1.01906844,104.406027 0.206312279,115.537325 C-2.92228137,158.311799 29.8820849,195.71474 73.5132057,198.544037 C99.9568716,200.257648 121.543632,192.425446 134.283594,184.280628 C117.100423,202.508623 80.2151423,212.586199 45.9419611,201.002606 C75.7737172,225.281628 109.089581,236.931035 109.089581,236.931035 C109.089581,236.931035 218.318012,198.743929 218.318012,116.511931 C218.318012,115.138591 219.561597,89.9577784 212.176831,71.6492659 C221.873865,66.0004742 204.12387,17.2568907 193.863939,11.3444934 Z" id="Shape"></path>
                </g>
                <g id="Group" transform="translate(185.966605, 35.707533)">
                    <path d="M53.4781443,6.2868487 C46.7444399,-2.16043343 31.7681772,-0.790363239 25.3721396,3.66432657 C4.52103562,18.1836397 -4.54815063,43.7984402 2.36866486,67.9913442 C0.174218039,44.8583134 10.6341151,32.2477744 22.7959707,24.1960677 C25.7555395,22.2366974 28.8158956,20.5472941 31.8192073,19.0419173 C32.1097578,13.803062 40.1770703,4.7818812 53.4781443,6.2868487 Z" id="Shape" fill="#10BBAC"></path>
                    <path d="M31.8259892,19.0373663 C16.4789256,26.7312895 -0.359797193,39.2243752 2.36866486,67.9913442 C12.5993267,38.8886544 34.5302005,24.5847456 59.3419291,33.4496658 C54.7391664,25.4200218 44.0819381,19.7690207 31.8259892,19.0373663 Z" id="Shape" fill="#6772E5"></path>
                </g>
                <path d="M118.058097,38.8525968 C130.04634,40.6138183 137.176963,43.2680783 152.044654,51.7930768 C157.571182,48.3935096 164.979506,45.7595539 172.255405,42.2210074 C172.421383,42.1401403 172.286459,42.1061832 172.678381,42.0407194 C150.461975,28.1025288 135.853424,22.405777 122.080116,20.448514 C62.6611084,12.0043826 28.2401533,47.8967548 13.4913239,77.6442806 C12.2156144,80.2180236 9.81982201,84.220418 9.89620752,86.8599749 C26.5757344,65.0983338 45.4993534,51.2970222 72.3827715,45.584517 C85.5046608,39.5096854 103.040134,36.6457312 118.058097,38.8525968 Z" id="Shape" fill="#E9E9E9"></path>
            </g>
        </g>
    </g>
</svg>